<?xml version="1.0" encoding="UTF-8"?>
<svg id="Layer_1" xmlns="http://www.w3.org/2000/svg" version="1.1" viewBox="0 0 640 182">
  <!-- Generator: Adobe Illustrator 29.6.1, SVG Export Plug-In . SVG Version: 2.1.1 Build 9)  -->
  <defs>
    <style>
      .st0 {
        fill: #0251fe;
      }
    </style>
  </defs>
  <path class="st0" d="M64,181.88c-3-.36-9.2-2.87-11.49-5s-5.51-8.58-5.51-11.48v-35.45h10v35.45c0,6.11,6.9,9.29,12.25,8.28,1.92-.36,6.75-3.3,6.75-5.28v-38.45h10v39.45c0,.29-2.44,4.25-3,4.99-3.18,4.22-8.8,6.95-14,7.49-1.41.15-3.61.17-5,0h0Z"/>
  <path class="st0" d="M0,164.9c11.8-1.55,7.2,1.35,11.43,6.07,6.17,6.88,22.14,1.36,15.65-7.65-3.79-5.26-22.41-4.7-25.6-16.37-5.91-21.64,36.37-24.9,36.53-3.03l-9.9-.11c-.23-10.44-19.22-9.37-16.95,1.4,1.57,5.27,24.26,6.96,26.63,17.39,1.46,6.45.17,13.3-6.09,16.47l-8.7,2.8h-6C9.44,179.91,4.05,177.94,0,170.88v-5.99h0Z"/>
  <path class="st0" d="M111,129.95c4.35,11.18,6.95,23.6,11.95,34.5.45.99.66,2.34,2.04,2.45l12.01-36.95h14v50.93h-10.01l.51-37.96-13.62,37.83-7.39-.87-14.48-36.96,1,37.95h-10.01v-50.94h14v.02Z"/>
  <path class="st0" d="M163,129.95l13.52.98,12.5,35.96,14.15-36.78,12.84-.17v50.93h-10.01l2-37.95c-1.49.25-1.93,1.83-2.49,3-4.85,10.06-7.56,23.48-11.99,33.97l-7.63.39-13.39-37.37.51,37.96h-10.01v-50.94.02Z"/>
  <polygon class="st0" points="289 129.95 289 137.94 273 137.94 273 180.88 263 180.88 263 137.94 248 137.94 248 129.95 289 129.95"/>
  <rect class="st0" x="229" y="129.95" width="10" height="50.93"/>
  <path class="st0" d="M12,115.97H2v-49.93h26.5c.37,0,5.74,3.01,6.44,3.55,6.72,5.13,7.18,18.27,1.1,23.96-1.15,1.07-7.49,4.45-8.55,4.45h-15l-1.28,1.5c-.03.41.78.75.78,1v15.48h.01ZM12,90.01c6.77-.66,17.48,2.97,18.08-6.46.76-11.81-9.16-10.57-18.08-10.52v16.98Z"/>
  <path class="st0" d="M258,82.01l-9.86-.12c-1.53-11.14-17.08-12.74-20.65-1.88-2.39,7.28-3.07,27.3,7.07,28.92,8.12,1.3,11.49-1.79,14.1-8.97l9.34.05c-1.62,13.38-11.8,18.36-24.5,16.97-23.44-2.55-23.55-49.21,0-51.93,12.84-1.48,22.36,3.85,24.5,16.97h0Z"/>
  <path class="st0" d="M127.86,66.18l11.64,37.82,11.6-37.86,10.9-.1-17.63,49.79h-10.23l-17.03-48.42c-.44-1.9.02-1.22,1.38-1.38,1.46-.17,8.75-.26,9.38.14h0Z"/>
  <path class="st0" d="M290,116.97l-11-.99c-.61-5.96.95-13.53-.22-19.25-.82-4.03-17.17-29.65-15.77-30.67l11.04.45,10.46,21.49,10.66-21.79,10.84-.15c1.39,1.02-16,28.61-16,30.45v20.47h-.01Z"/>
  <rect class="st0" x="99" y="66.04" width="10" height="49.93"/>
  <path class="st0" d="M76.5,66.04c13.83,2.29,15.61,24.11,2.42,28.55l10.07,21.37-10.84-.16-8.32-17.65-9.84-.16v17.98h-10v-49.93c8.05.94,18.83-1.27,26.5,0h.01ZM60,73.03v16.98c6.39.65,18.12.33,18.06-8.49-.07-9.6-11.11-8.68-18.06-8.49Z"/>
  <path class="st0" d="M191.86,66.17l18.13,49.79-10.04-.45-3.57-9.59-19.5.65-3.03,9.26-10.86.13,18.5-48.93,10.37-.86ZM194,97.99c-3.15-6.21-3.52-14.74-7.99-19.97l-6.01,19.97h14Z"/>
  <path class="st0" d="M73,.13c8.87,1.12,17.51,8.55,17,17.98l-9.96-.04c.92-9.04-10.98-12.62-17-7.41-5.35,4.63-5.12,23.27-2.24,29.13,4.11,8.39,19.85,6.6,19.26-3.64,2.66.11,5.93-.43,8.48-.07,1.49.22,1.59-.59,1.49,1.51-.9,18.26-31.7,21.64-39.06,3.04C45.02,25.64,49.08,2.42,68,.13c1.36-.16,3.65-.17,5,0Z"/>
  <path class="st0" d="M2,52.06V1.12h19.5c2.53,0,10.53,4.47,12.49,6.5,9.02,9.35,8.62,31.76-2.08,39.85-1.52,1.15-8.07,4.58-9.41,4.58H2ZM12,9.11v32.46c0,.31-1.38,1.41-1,2.49,17.32,2.31,20.52-7.4,19.05-22.51-1-10.23-8.55-13.63-18.05-12.43h0Z"/>
</svg>