<?xml version="1.0" encoding="UTF-8"?>
<svg id="Layer_2" data-name="Layer 2" xmlns="http://www.w3.org/2000/svg" viewBox="0 0 716.05 430.8">
  <defs>
    <style>
      .cls-1 {
        fill: #003b79;
      }
    </style>
  </defs>
  <g id="Layer_1-2" data-name="Layer 1">
    <g>
      <path class="cls-1" d="M5.16,124.96V1.69h37.93c10.84,0,20.53,2.44,29.08,7.32,8.55,4.88,15.23,11.83,20.02,20.83,4.8,9,7.2,19.23,7.2,30.69v5.67c0,11.46-2.36,21.65-7.07,30.56-4.71,8.92-11.36,15.83-19.94,20.74-8.58,4.91-18.26,7.39-29.04,7.45H5.16ZM30.56,22.27v82.29h12.28c9.93,0,17.53-3.25,22.77-9.74,5.25-6.49,7.93-15.78,8.04-27.85v-6.52c0-12.53-2.6-22.03-7.79-28.49-5.19-6.46-12.78-9.69-22.77-9.69h-12.53Z"/>
      <path class="cls-1" d="M221.56,83.9c-.96,13.26-5.86,23.71-14.69,31.33-8.83,7.62-20.48,11.43-34.92,11.43-15.8,0-28.24-5.32-37.29-15.96-9.06-10.64-13.59-25.24-13.59-43.81v-7.54c0-11.85,2.09-22.29,6.26-31.33,4.18-9.03,10.15-15.96,17.91-20.79,7.76-4.83,16.78-7.24,27.05-7.24,14.22,0,25.68,3.81,34.37,11.43,8.69,7.62,13.72,18.32,15.07,32.09h-25.4c-.62-7.96-2.84-13.73-6.65-17.31-3.81-3.58-9.61-5.38-17.4-5.38-8.47,0-14.8,3.04-19.01,9.1-4.21,6.07-6.36,15.48-6.48,28.24v9.31c0,13.32,2.02,23.06,6.05,29.21,4.04,6.15,10.4,9.23,19.09,9.23,7.84,0,13.7-1.79,17.57-5.38,3.87-3.58,6.08-9.13,6.65-16.64h25.4Z"/>
      <path class="cls-1" d="M30.56,233.6v43.43H5.16v-123.27h48.09c9.26,0,17.4,1.69,24.42,5.08,7.03,3.39,12.43,8.2,16.21,14.43,3.78,6.24,5.67,13.33,5.67,21.29,0,12.08-4.13,21.6-12.4,28.57-8.27,6.97-19.71,10.46-34.33,10.46h-22.27ZM30.56,213.03h22.69c6.72,0,11.84-1.58,15.37-4.74,3.53-3.16,5.29-7.68,5.29-13.55s-1.78-10.92-5.33-14.65c-3.56-3.72-8.47-5.64-14.73-5.76h-23.28v38.69Z"/>
      <path class="cls-1" d="M162.64,231.91h-20.24v45.13h-25.4v-123.27h45.8c14.56,0,25.79,3.25,33.7,9.74,7.9,6.49,11.85,15.66,11.85,27.52,0,8.41-1.82,15.42-5.46,21.04-3.64,5.62-9.16,10.09-16.55,13.42l26.67,50.38v1.19h-27.26l-23.11-45.13ZM142.4,211.33h20.49c6.38,0,11.32-1.62,14.82-4.87,3.5-3.25,5.25-7.72,5.25-13.42s-1.65-10.38-4.95-13.72c-3.3-3.33-8.37-5-15.2-5h-20.4v37Z"/>
      <path class="cls-1" d="M261.6,277.03h-25.4v-123.27h25.4v123.27Z"/>
      <path class="cls-1" d="M337.62,246.47l27.94-92.71h28.28l-42.92,123.27h-26.5l-42.75-123.27h28.19l27.77,92.71Z"/>
      <path class="cls-1" d="M463.07,251.63h-44.53l-8.47,25.4h-27.01l45.89-123.27h23.54l46.14,123.27h-27.01l-8.55-25.4ZM425.4,231.06h30.82l-15.49-46.14-15.32,46.14Z"/>
      <path class="cls-1" d="M606.92,235.97c-.96,13.26-5.86,23.71-14.69,31.33-8.83,7.62-20.48,11.43-34.92,11.43-15.8,0-28.24-5.32-37.29-15.96-9.06-10.64-13.59-25.24-13.59-43.81v-7.54c0-11.85,2.09-22.29,6.26-31.33,4.18-9.03,10.15-15.96,17.91-20.79,7.76-4.83,16.78-7.24,27.05-7.24,14.22,0,25.68,3.81,34.37,11.43,8.69,7.62,13.72,18.32,15.07,32.09h-25.4c-.62-7.96-2.84-13.73-6.65-17.31-3.81-3.58-9.61-5.38-17.4-5.38-8.47,0-14.8,3.04-19.01,9.1-4.21,6.07-6.36,15.48-6.48,28.24v9.31c0,13.32,2.02,23.06,6.05,29.21,4.04,6.15,10.4,9.23,19.09,9.23,7.84,0,13.7-1.79,17.57-5.38,3.87-3.58,6.08-9.13,6.65-16.64h25.4Z"/>
      <path class="cls-1" d="M662.63,209.3l25.65-55.54h27.77l-40.47,78.57v44.7h-25.82v-44.7l-40.47-78.57h27.85l25.48,55.54Z"/>
      <path class="cls-1" d="M69.09,396.76c0-4.8-1.69-8.48-5.08-11.05-3.39-2.57-9.48-5.28-18.29-8.13-8.81-2.85-15.78-5.66-20.91-8.42-14-7.56-21-17.75-21-30.56,0-6.66,1.88-12.6,5.63-17.82,3.75-5.22,9.14-9.3,16.17-12.23,7.03-2.93,14.92-4.4,23.66-4.4s16.65,1.6,23.54,4.78c6.89,3.19,12.23,7.69,16.04,13.5,3.81,5.81,5.71,12.42,5.71,19.81h-25.4c0-5.64-1.78-10.03-5.33-13.17-3.56-3.13-8.55-4.7-14.99-4.7s-11.04,1.31-14.48,3.94c-3.44,2.62-5.17,6.08-5.17,10.37,0,4.01,2.02,7.37,6.05,10.08,4.03,2.71,9.98,5.25,17.82,7.62,14.45,4.35,24.98,9.74,31.58,16.17s9.91,14.45,9.91,24.04c0,10.67-4.04,19.04-12.11,25.1-8.07,6.07-18.94,9.1-32.6,9.1-9.48,0-18.12-1.74-25.91-5.21-7.79-3.47-13.73-8.23-17.82-14.27-4.09-6.04-6.14-13.04-6.14-21h25.48c0,13.6,8.13,20.4,24.38,20.4,6.04,0,10.75-1.23,14.14-3.68s5.08-5.88,5.08-10.29Z"/>
      <path class="cls-1" d="M211.99,305.83v81.19c0,13.49-4.22,24.16-12.66,32-8.44,7.85-19.97,11.77-34.58,11.77s-25.82-3.81-34.29-11.43c-8.47-7.62-12.78-18.09-12.95-31.41v-82.12h25.4v81.36c0,8.07,1.93,13.96,5.8,17.65,3.87,3.7,9.21,5.54,16.04,5.54,14.28,0,21.53-7.51,21.76-22.52v-82.04h25.48Z"/>
      <path class="cls-1" d="M272.94,305.83l31.66,89.41,31.5-89.41h33.36v123.27h-25.48v-33.7l2.54-58.16-33.27,91.86h-17.44l-33.19-91.78,2.54,58.08v33.7h-25.4v-123.27h33.19Z"/>
      <path class="cls-1" d="M431.76,305.83l31.66,89.41,31.5-89.41h33.36v123.27h-25.48v-33.7l2.54-58.16-33.27,91.86h-17.44l-33.19-91.78,2.54,58.08v33.7h-25.4v-123.27h33.19Z"/>
      <path class="cls-1" d="M584.41,429.1h-25.4v-123.27h25.4v123.27Z"/>
      <path class="cls-1" d="M707.67,326.41h-37.76v102.7h-25.4v-102.7h-37.25v-20.57h100.41v20.57Z"/>
    </g>
  </g>
</svg>