<?xml version="1.0" encoding="UTF-8"?>
<svg xmlns="http://www.w3.org/2000/svg" viewBox="0 0 1215.07 888.67">
  <defs>
    <style>
      .cls-1 {
        isolation: isolate;
      }

      .cls-2 {
        fill: #ee392c;
      }

      .cls-3 {
        mix-blend-mode: luminosity;
      }

      .cls-3, .cls-4 {
        fill: #003b79;
      }

      .cls-5 {
        fill: #fcf7ef;
      }
    </style>
  </defs>
  <g class="cls-1">
    <g id="Layer_2" data-name="Layer 2">
      <g id="Layer_1-2" data-name="Layer 1">
        <g>
          <rect class="cls-2" x="41.8" y="835.19" width="577.63" height="50.37" rx="14.51" ry="14.51"/>
          <rect class="cls-2" x="41.8" y="762.28" width="577.63" height="50.37" rx="17.07" ry="17.07"/>
          <rect class="cls-2" x="41.8" y="691.29" width="577.63" height="50.37" rx="16.35" ry="16.35"/>
          <rect class="cls-2" x="238.41" y="622.22" width="381.02" height="50.37" rx="16.65" ry="16.65"/>
          <rect class="cls-2" x="238.41" y="549.31" width="381.02" height="50.37" rx="16.34" ry="16.34"/>
          <rect class="cls-2" x="238.41" y="478.33" width="381.02" height="50.37" rx="13.12" ry="13.12"/>
          <path class="cls-4" d="M324.75,0h0C189.61,0,80.06,106.1,80.06,212.48v153.71c0,8.98,7.22,16.3,16.2,16.41l47.84-.23c9.15.12,16.58-6.43,16.58-15.58v-118.31c0-97.1,74.24-175.81,165.81-175.81s165.81,78.71,165.81,175.81v238.86c0,9.02,7.28,16.35,16.3,16.41l44.29.3c9.11.06,16.52-7.31,16.52-16.41V212.48C569.44,95.13,459.89,0,324.75,0Z"/>
          <rect class="cls-4" y="406.08" width="266.73" height="266.73" rx="24.29" ry="24.29"/>
          <path class="cls-5" d="M492.32,478.33h77.12v20.33c0,3.05-2.47,5.52-5.52,5.52h-65.95c-3.12,0-5.65-2.53-5.65-5.65v-20.2h0Z"/>
          <path class="cls-5" d="M244.11,478.33h22.62v50.37h-22.62c-3.14,0-5.7-2.55-5.7-5.7v-38.97c0-3.14,2.55-5.7,5.7-5.7Z"/>
          <path class="cls-5" d="M244.42,549.31h22.31v50.22h-22.67c-3.12,0-5.65-2.53-5.65-5.65v-38.56c0-3.32,2.69-6.01,6.01-6.01Z"/>
          <path class="cls-5" d="M244.42,622.22h22.31v50.59h-22.67c-3.12,0-5.65-2.53-5.65-5.65v-38.94c0-3.32,2.69-6.01,6.01-6.01Z"/>
          <g>
            <path class="cls-3" d="M644.9,647.34v-96.69h29.75c8.5,0,16.11,1.93,22.81,5.76,6.71,3.83,11.94,9.27,15.7,16.33,3.76,7.07,5.64,15.09,5.64,24.08v4.45c0,8.98-1.85,16.98-5.55,23.97-3.68,6.99-8.91,12.41-15.64,16.26-6.72,3.85-14.32,5.81-22.77,5.85h-29.95ZM664.82,566.79v64.55h9.62c7.8,0,13.75-2.55,17.86-7.64,4.13-5.09,6.22-12.37,6.32-21.85v-5.1c0-9.83-2.04-17.28-6.11-22.34-4.08-5.08-10.03-7.6-17.86-7.6h-9.83Z"/>
            <path class="cls-3" d="M811.91,615.12c-.76,10.42-4.58,18.59-11.52,24.58-6.93,5.96-16.05,8.96-27.38,8.96-12.4,0-22.15-4.17-29.26-12.51-7.11-8.35-10.65-19.81-10.65-34.38v-5.9c0-9.3,1.63-17.49,4.91-24.58,3.28-7.07,7.96-12.51,14.05-16.3,6.08-3.78,13.15-5.68,21.21-5.68,11.16,0,20.14,2.99,26.97,8.97,6.81,5.98,10.76,14.36,11.81,25.17h-19.92c-.48-6.25-2.21-10.77-5.21-13.58-2.98-2.81-7.54-4.22-13.65-4.22-6.64,0-11.61,2.38-14.91,7.14-3.29,4.77-4.99,12.15-5.08,22.15v7.3c0,10.46,1.59,18.09,4.75,22.92,3.16,4.82,8.15,7.23,14.97,7.23,6.15,0,10.74-1.39,13.78-4.21,3.03-2.81,4.77-7.16,5.21-13.06h19.92Z"/>
            <path class="cls-3" d="M664.82,733.28v34.06h-19.92v-96.69h37.72c7.25,0,13.65,1.33,19.15,3.98,5.51,2.66,9.75,6.43,12.72,11.33,2.97,4.9,4.45,10.46,4.45,16.71,0,9.47-3.26,16.94-9.74,22.41-6.48,5.47-15.46,8.2-26.93,8.2h-17.46ZM664.82,717.13h17.8c5.26,0,9.28-1.24,12.04-3.71,2.77-2.49,4.15-6.03,4.15-10.63s-1.39-8.57-4.18-11.5c-2.79-2.92-6.64-4.41-11.55-4.51h-18.27v30.34Z"/>
            <path class="cls-3" d="M771.14,731.95h-15.87v35.39h-19.92v-96.69h35.93c11.42,0,20.23,2.55,26.43,7.64,6.2,5.09,9.3,12.28,9.3,21.58,0,6.6-1.43,12.1-4.28,16.51-2.85,4.4-7.19,7.92-12.98,10.52l20.91,39.52v.92h-21.38l-18.13-35.39ZM755.27,715.8h16.07c5,0,8.88-1.26,11.63-3.82,2.73-2.54,4.11-6.05,4.11-10.52s-1.3-8.15-3.88-10.76c-2.59-2.62-6.58-3.92-11.93-3.92h-16v29.01Z"/>
            <path class="cls-3" d="M846.05,767.34h-19.92v-96.69h19.92v96.69Z"/>
            <path class="cls-3" d="M902.97,743.37l21.91-72.72h22.17l-33.66,96.69h-20.79l-33.53-96.69h22.11l21.78,72.72Z"/>
            <path class="cls-3" d="M1008.49,747.42h-34.92l-6.64,19.92h-21.19l35.99-96.69h18.46l36.19,96.69h-21.19l-6.71-19.92ZM978.94,731.28h24.17l-12.15-36.2-12.02,36.2Z"/>
            <path class="cls-3" d="M1124.03,735.13c-.76,10.42-4.58,18.59-11.52,24.58-6.93,5.96-16.05,8.96-27.38,8.96-12.4,0-22.15-4.17-29.26-12.51-7.11-8.35-10.65-19.81-10.65-34.38v-5.9c0-9.3,1.63-17.49,4.91-24.58,3.28-7.07,7.96-12.51,14.05-16.3,6.08-3.78,13.15-5.68,21.21-5.68,11.16,0,20.14,2.99,26.97,8.97,6.81,5.98,10.76,14.36,11.81,25.17h-19.92c-.48-6.25-2.21-10.77-5.21-13.58-2.98-2.81-7.54-4.22-13.65-4.22-6.64,0-11.61,2.38-14.91,7.14-3.29,4.77-4.99,12.15-5.08,22.15v7.3c0,10.46,1.59,18.09,4.75,22.92,3.16,4.82,8.15,7.23,14.97,7.23,6.15,0,10.74-1.39,13.78-4.21,3.03-2.81,4.77-7.16,5.21-13.06h19.92Z"/>
            <path class="cls-3" d="M1173.17,714.21l20.12-43.57h21.78l-31.73,61.63v35.07h-20.26v-35.07l-31.75-61.63h21.85l19.99,43.57Z"/>
            <path class="cls-3" d="M695.05,861.98c0-3.76-1.33-6.65-3.98-8.67-2.66-2.01-7.45-4.14-14.35-6.37-6.9-2.24-12.37-4.44-16.41-6.61-10.98-5.92-16.47-13.92-16.47-23.97,0-5.22,1.47-9.88,4.43-13.97,2.94-4.1,7.16-7.3,12.68-9.6,5.51-2.3,11.69-3.46,18.56-3.46s13.06,1.26,18.46,3.76c5.4,2.5,9.6,6.03,12.58,10.59,2.99,4.56,4.49,9.74,4.49,15.53h-19.92c0-4.43-1.39-7.86-4.19-10.33-2.79-2.45-6.71-3.68-11.75-3.68s-8.66,1.03-11.37,3.09c-2.7,2.07-4.05,4.78-4.05,8.14,0,3.15,1.59,5.78,4.75,7.9,3.16,2.12,7.83,4.11,13.98,5.98,11.33,3.41,19.58,7.64,24.77,12.68,5.18,5.05,7.77,11.34,7.77,18.87,0,8.36-3.18,14.92-9.51,19.69-6.33,4.75-14.84,7.14-25.56,7.14-7.44,0-14.22-1.37-20.33-4.09-6.11-2.72-10.77-6.45-13.97-11.19-3.22-4.74-4.82-10.22-4.82-16.47h19.99c0,10.68,6.38,16,19.13,16,4.74,0,8.44-.96,11.09-2.89,2.66-1.91,3.98-4.61,3.98-8.06Z"/>
            <path class="cls-3" d="M804.41,790.65v63.69c0,10.59-3.31,18.96-9.92,25.1-6.63,6.16-15.66,9.23-27.14,9.23s-20.25-2.99-26.89-8.96c-6.64-5.99-10.03-14.19-10.16-24.65v-64.42h19.92v63.83c0,6.33,1.51,10.94,4.54,13.84,3.03,2.9,7.23,4.35,12.58,4.35,11.21,0,16.89-5.89,17.07-17.67v-64.35h19.99Z"/>
            <path class="cls-3" d="M849.5,790.65l24.84,70.13,24.7-70.13h26.16v96.69h-19.99v-26.43l1.99-45.63-26.09,72.06h-13.69l-26.03-71.98,1.99,45.55v26.43h-19.92v-96.69h26.03Z"/>
            <path class="cls-3" d="M971.35,790.65l24.84,70.13,24.7-70.13h26.16v96.69h-19.99v-26.43l1.99-45.63-26.09,72.06h-13.69l-26.03-71.98,1.99,45.55v26.43h-19.92v-96.69h26.03Z"/>
            <path class="cls-3" d="M1088.36,887.34h-19.92v-96.69h19.92v96.69Z"/>
            <path class="cls-3" d="M1182.32,806.79h-29.62v80.55h-19.92v-80.55h-29.22v-16.15h78.76v16.15Z"/>
          </g>
        </g>
      </g>
    </g>
  </g>
</svg>